<mxfile host="app.diagrams.net" modified="2021-09-20T12:28:09.406Z" agent="5.0 (Macintosh; Intel Mac OS X 10_15_7) AppleWebKit/537.36 (KHTML, like Gecko) Chrome/93.0.4577.82 Safari/537.36" etag="8nMQUbsEk0Du_oOheL5h" version="15.2.7" type="github">
  <diagram id="a7P-tZxecoMDNm2FWaQN" name="Page-1">
    <mxGraphModel dx="1351" dy="1973" grid="1" gridSize="10" guides="1" tooltips="1" connect="1" arrows="1" fold="1" page="1" pageScale="1" pageWidth="827" pageHeight="1169" math="0" shadow="0">
      <root>
        <mxCell id="0" />
        <mxCell id="1" parent="0" />
        <mxCell id="mjaGHZqd63xZ3EgKJC4R-2" value="JVM" style="rounded=0;whiteSpace=wrap;html=1;fillColor=#f5f5f5;strokeColor=#666666;fontColor=#333333;" vertex="1" parent="1">
          <mxGeometry x="74" y="-730" width="340" height="300" as="geometry" />
        </mxCell>
        <mxCell id="fB1XcSxYVvujUa72gR2V-3" value="堆&lt;br&gt;heap" style="rounded=0;whiteSpace=wrap;html=1;gradientColor=#ffa500;fillColor=#ffcd28;strokeColor=#d79b00;" parent="1" vertex="1">
          <mxGeometry x="79" y="-530" width="165" height="90" as="geometry" />
        </mxCell>
        <mxCell id="fB1XcSxYVvujUa72gR2V-4" value="栈&lt;br&gt;stack" style="rounded=0;whiteSpace=wrap;html=1;fillColor=#ffe6cc;strokeColor=#d79b00;" parent="1" vertex="1">
          <mxGeometry x="79" y="-720" width="325" height="110" as="geometry" />
        </mxCell>
        <mxCell id="fB1XcSxYVvujUa72gR2V-8" value="" style="shape=flexArrow;endArrow=classic;html=1;fillColor=#ffe6cc;strokeColor=#d79b00;" parent="1" edge="1">
          <mxGeometry width="50" height="50" relative="1" as="geometry">
            <mxPoint x="241.08" y="-720" as="sourcePoint" />
            <mxPoint x="241.08" y="-770" as="targetPoint" />
          </mxGeometry>
        </mxCell>
        <mxCell id="fB1XcSxYVvujUa72gR2V-9" value="&amp;nbsp; &amp;nbsp; &amp;nbsp; &amp;nbsp; &amp;nbsp; &amp;nbsp; &amp;nbsp; &amp;nbsp; &amp;nbsp; &amp;nbsp; &amp;nbsp; &amp;nbsp; &amp;nbsp; &amp;nbsp; &amp;nbsp; &amp;nbsp; &amp;nbsp; &amp;nbsp; &amp;nbsp; &amp;nbsp; &amp;nbsp; &amp;nbsp;。。。" style="rounded=0;whiteSpace=wrap;html=1;fillColor=#ffe6cc;strokeColor=#d79b00;" parent="1" vertex="1">
          <mxGeometry x="79" y="-830" width="325" height="60" as="geometry" />
        </mxCell>
        <mxCell id="fB1XcSxYVvujUa72gR2V-10" value="线程栈1" style="rounded=0;whiteSpace=wrap;html=1;fillColor=#dae8fc;strokeColor=#6c8ebf;" parent="1" vertex="1">
          <mxGeometry x="84" y="-820" width="60" height="40" as="geometry" />
        </mxCell>
        <mxCell id="fB1XcSxYVvujUa72gR2V-11" value="线程栈2" style="rounded=0;whiteSpace=wrap;html=1;fillColor=#dae8fc;strokeColor=#6c8ebf;" parent="1" vertex="1">
          <mxGeometry x="154" y="-820" width="60" height="40" as="geometry" />
        </mxCell>
        <mxCell id="fB1XcSxYVvujUa72gR2V-12" value="线程栈3" style="rounded=0;whiteSpace=wrap;html=1;fillColor=#dae8fc;strokeColor=#6c8ebf;" parent="1" vertex="1">
          <mxGeometry x="224" y="-820" width="60" height="40" as="geometry" />
        </mxCell>
        <mxCell id="fB1XcSxYVvujUa72gR2V-13" value="线程栈n" style="rounded=0;whiteSpace=wrap;html=1;fillColor=#dae8fc;strokeColor=#6c8ebf;" parent="1" vertex="1">
          <mxGeometry x="334" y="-820" width="60" height="40" as="geometry" />
        </mxCell>
        <mxCell id="fB1XcSxYVvujUa72gR2V-14" value="" style="shape=flexArrow;endArrow=classic;html=1;fillColor=#dae8fc;strokeColor=#6c8ebf;" parent="1" edge="1">
          <mxGeometry width="50" height="50" relative="1" as="geometry">
            <mxPoint x="113.58000000000001" y="-820" as="sourcePoint" />
            <mxPoint x="113.58000000000001" y="-870" as="targetPoint" />
          </mxGeometry>
        </mxCell>
        <mxCell id="fB1XcSxYVvujUa72gR2V-15" value="&amp;nbsp; &amp;nbsp; &amp;nbsp; &amp;nbsp; &amp;nbsp; &amp;nbsp; &amp;nbsp; &amp;nbsp; &amp;nbsp; &amp;nbsp; &amp;nbsp; &amp;nbsp; &amp;nbsp; &amp;nbsp; &amp;nbsp; &amp;nbsp; &amp;nbsp; &amp;nbsp; &amp;nbsp; &amp;nbsp; &amp;nbsp; &amp;nbsp;。。。" style="rounded=0;whiteSpace=wrap;html=1;fillColor=#dae8fc;strokeColor=#6c8ebf;" parent="1" vertex="1">
          <mxGeometry x="79" y="-920" width="325" height="50" as="geometry" />
        </mxCell>
        <mxCell id="fB1XcSxYVvujUa72gR2V-16" value="栈帧&lt;br&gt;（方法A）" style="rounded=1;whiteSpace=wrap;html=1;fillColor=#d5e8d4;strokeColor=#82b366;" parent="1" vertex="1">
          <mxGeometry x="79" y="-920" width="65" height="50" as="geometry" />
        </mxCell>
        <mxCell id="fB1XcSxYVvujUa72gR2V-17" value="栈帧&lt;br&gt;（方法B）" style="rounded=1;whiteSpace=wrap;html=1;fillColor=#d5e8d4;strokeColor=#82b366;" parent="1" vertex="1">
          <mxGeometry x="144" y="-920" width="70" height="50" as="geometry" />
        </mxCell>
        <mxCell id="fB1XcSxYVvujUa72gR2V-18" value="栈帧&lt;br&gt;（方法C）" style="rounded=1;whiteSpace=wrap;html=1;fillColor=#d5e8d4;strokeColor=#82b366;" parent="1" vertex="1">
          <mxGeometry x="214" y="-920" width="65" height="50" as="geometry" />
        </mxCell>
        <mxCell id="fB1XcSxYVvujUa72gR2V-19" value="栈帧&lt;br&gt;（方法N）" style="rounded=1;whiteSpace=wrap;html=1;fillColor=#d5e8d4;strokeColor=#82b366;" parent="1" vertex="1">
          <mxGeometry x="343" y="-920" width="61" height="50" as="geometry" />
        </mxCell>
        <mxCell id="fB1XcSxYVvujUa72gR2V-20" value="" style="shape=flexArrow;endArrow=classic;html=1;fillColor=#d5e8d4;strokeColor=#82b366;" parent="1" edge="1">
          <mxGeometry width="50" height="50" relative="1" as="geometry">
            <mxPoint x="111.08000000000004" y="-920" as="sourcePoint" />
            <mxPoint x="111.08000000000004" y="-970" as="targetPoint" />
          </mxGeometry>
        </mxCell>
        <mxCell id="fB1XcSxYVvujUa72gR2V-22" value="" style="rounded=0;whiteSpace=wrap;html=1;fillColor=#d5e8d4;strokeColor=#82b366;" parent="1" vertex="1">
          <mxGeometry x="79" y="-1020" width="325" height="50" as="geometry" />
        </mxCell>
        <mxCell id="fB1XcSxYVvujUa72gR2V-24" value="返回值" style="rounded=1;whiteSpace=wrap;html=1;fillColor=#ffff88;strokeColor=#36393d;" parent="1" vertex="1">
          <mxGeometry x="84" y="-1010" width="60" height="30" as="geometry" />
        </mxCell>
        <mxCell id="fB1XcSxYVvujUa72gR2V-25" value="局部变量" style="rounded=1;whiteSpace=wrap;html=1;fillColor=#cce5ff;strokeColor=#36393d;" parent="1" vertex="1">
          <mxGeometry x="154" y="-1010" width="70" height="30" as="geometry" />
        </mxCell>
        <mxCell id="fB1XcSxYVvujUa72gR2V-26" value="操作数栈&amp;nbsp;" style="rounded=1;whiteSpace=wrap;html=1;gradientColor=#ffd966;fillColor=#fff2cc;strokeColor=#d6b656;" parent="1" vertex="1">
          <mxGeometry x="234" y="-1010" width="70" height="30" as="geometry" />
        </mxCell>
        <mxCell id="fB1XcSxYVvujUa72gR2V-28" value="class/method指针" style="rounded=1;whiteSpace=wrap;html=1;gradientColor=#ea6b66;fillColor=#f8cecc;strokeColor=#b85450;" parent="1" vertex="1">
          <mxGeometry x="314" y="-1010" width="80" height="30" as="geometry" />
        </mxCell>
        <mxCell id="mjaGHZqd63xZ3EgKJC4R-4" value="" style="shape=flexArrow;endArrow=classic;html=1;fillColor=#ffcd28;strokeColor=#d79b00;gradientColor=#ffa500;" edge="1" parent="1">
          <mxGeometry width="50" height="50" relative="1" as="geometry">
            <mxPoint x="161" y="-440" as="sourcePoint" />
            <mxPoint x="161" y="-390" as="targetPoint" />
          </mxGeometry>
        </mxCell>
        <mxCell id="mjaGHZqd63xZ3EgKJC4R-5" value="" style="rounded=0;whiteSpace=wrap;html=1;gradientColor=#ffa500;fillColor=#ffcd28;strokeColor=#d79b00;" vertex="1" parent="1">
          <mxGeometry x="76.5" y="-390" width="335" height="60" as="geometry" />
        </mxCell>
        <mxCell id="mjaGHZqd63xZ3EgKJC4R-6" value="年轻代&lt;br&gt;yong-gen" style="rounded=0;whiteSpace=wrap;html=1;gradientColor=#97d077;fillColor=#d5e8d4;strokeColor=#82b366;" vertex="1" parent="1">
          <mxGeometry x="79" y="-380" width="175" height="50" as="geometry" />
        </mxCell>
        <mxCell id="mjaGHZqd63xZ3EgKJC4R-7" value="老年代&lt;br&gt;old-gen" style="rounded=0;whiteSpace=wrap;html=1;gradientColor=#b3b3b3;fillColor=#f5f5f5;strokeColor=#666666;" vertex="1" parent="1">
          <mxGeometry x="264" y="-380" width="140" height="50" as="geometry" />
        </mxCell>
        <mxCell id="mjaGHZqd63xZ3EgKJC4R-8" value="" style="shape=flexArrow;endArrow=classic;html=1;fillColor=#d5e8d4;strokeColor=#82b366;gradientColor=#97d077;" edge="1" parent="1">
          <mxGeometry width="50" height="50" relative="1" as="geometry">
            <mxPoint x="166" y="-330" as="sourcePoint" />
            <mxPoint x="166" y="-280" as="targetPoint" />
          </mxGeometry>
        </mxCell>
        <mxCell id="mjaGHZqd63xZ3EgKJC4R-9" value="" style="rounded=0;whiteSpace=wrap;html=1;gradientColor=#97d077;fillColor=#d5e8d4;strokeColor=#82b366;" vertex="1" parent="1">
          <mxGeometry x="74" y="-280" width="180" height="60" as="geometry" />
        </mxCell>
        <mxCell id="mjaGHZqd63xZ3EgKJC4R-11" value="新生儿&lt;br&gt;eden-space" style="rounded=1;whiteSpace=wrap;html=1;fillColor=#ffff88;strokeColor=#36393d;" vertex="1" parent="1">
          <mxGeometry x="74" y="-280" width="100" height="60" as="geometry" />
        </mxCell>
        <mxCell id="mjaGHZqd63xZ3EgKJC4R-12" value="s0" style="rounded=1;whiteSpace=wrap;html=1;fillColor=#e3c800;strokeColor=#B09500;fontColor=#000000;" vertex="1" parent="1">
          <mxGeometry x="174" y="-280" width="40" height="60" as="geometry" />
        </mxCell>
        <mxCell id="mjaGHZqd63xZ3EgKJC4R-13" value="s1" style="rounded=1;whiteSpace=wrap;html=1;fillColor=#e3c800;strokeColor=#B09500;fontColor=#000000;" vertex="1" parent="1">
          <mxGeometry x="214" y="-280" width="40" height="60" as="geometry" />
        </mxCell>
        <mxCell id="mjaGHZqd63xZ3EgKJC4R-14" value="非堆&lt;br&gt;non-heap" style="rounded=0;whiteSpace=wrap;html=1;fillColor=#6d8764;strokeColor=#3A5431;fontColor=#ffffff;" vertex="1" parent="1">
          <mxGeometry x="254" y="-530" width="150" height="40" as="geometry" />
        </mxCell>
        <mxCell id="mjaGHZqd63xZ3EgKJC4R-16" value="" style="shape=flexArrow;endArrow=classic;html=1;fillColor=#6d8764;strokeColor=#3A5431;entryX=0;entryY=0.5;entryDx=0;entryDy=0;" edge="1" parent="1" target="mjaGHZqd63xZ3EgKJC4R-17">
          <mxGeometry width="50" height="50" relative="1" as="geometry">
            <mxPoint x="404" y="-510.71000000000004" as="sourcePoint" />
            <mxPoint x="456.5" y="-510.71000000000004" as="targetPoint" />
          </mxGeometry>
        </mxCell>
        <mxCell id="mjaGHZqd63xZ3EgKJC4R-17" value="" style="rounded=0;whiteSpace=wrap;html=1;fillColor=#6d8764;strokeColor=#3A5431;fontColor=#ffffff;" vertex="1" parent="1">
          <mxGeometry x="464" y="-540" width="290" height="60" as="geometry" />
        </mxCell>
        <mxCell id="mjaGHZqd63xZ3EgKJC4R-19" value="元数据区&lt;br&gt;metaspace" style="rounded=1;whiteSpace=wrap;html=1;fillColor=#fa6800;strokeColor=#C73500;fontColor=#000000;" vertex="1" parent="1">
          <mxGeometry x="464" y="-540" width="120" height="60" as="geometry" />
        </mxCell>
        <mxCell id="mjaGHZqd63xZ3EgKJC4R-20" value="compressed&lt;br&gt;class space" style="rounded=1;whiteSpace=wrap;html=1;fillColor=#f8cecc;strokeColor=#b85450;gradientColor=#ea6b66;" vertex="1" parent="1">
          <mxGeometry x="564" y="-530" width="110" height="50" as="geometry" />
        </mxCell>
        <mxCell id="mjaGHZqd63xZ3EgKJC4R-21" value="code&lt;br&gt;cache" style="rounded=1;whiteSpace=wrap;html=1;gradientColor=#d5739d;fillColor=#e6d0de;strokeColor=#996185;" vertex="1" parent="1">
          <mxGeometry x="674" y="-520" width="80" height="40" as="geometry" />
        </mxCell>
        <mxCell id="mjaGHZqd63xZ3EgKJC4R-22" value="" style="shape=flexArrow;endArrow=classic;html=1;fillColor=#fa6800;strokeColor=#C73500;" edge="1" parent="1">
          <mxGeometry width="50" height="50" relative="1" as="geometry">
            <mxPoint x="523.29" y="-480" as="sourcePoint" />
            <mxPoint x="523.29" y="-430" as="targetPoint" />
          </mxGeometry>
        </mxCell>
        <mxCell id="mjaGHZqd63xZ3EgKJC4R-24" value="" style="rounded=0;whiteSpace=wrap;html=1;fillColor=#fa6800;strokeColor=#C73500;fontColor=#000000;" vertex="1" parent="1">
          <mxGeometry x="464" y="-430" width="210" height="60" as="geometry" />
        </mxCell>
        <mxCell id="mjaGHZqd63xZ3EgKJC4R-25" value="方法区" style="rounded=0;whiteSpace=wrap;html=1;align=left;fillColor=#fad7ac;strokeColor=#b46504;" vertex="1" parent="1">
          <mxGeometry x="474" y="-420" width="180" height="50" as="geometry" />
        </mxCell>
        <mxCell id="mjaGHZqd63xZ3EgKJC4R-26" value="常量池" style="rounded=0;whiteSpace=wrap;html=1;gradientColor=#ffd966;fillColor=#fff2cc;strokeColor=#d6b656;" vertex="1" parent="1">
          <mxGeometry x="524" y="-410" width="110" height="40" as="geometry" />
        </mxCell>
        <mxCell id="mjaGHZqd63xZ3EgKJC4R-27" value="jvm自身" style="rounded=0;whiteSpace=wrap;html=1;fillColor=#cdeb8b;strokeColor=#36393d;" vertex="1" parent="1">
          <mxGeometry x="254" y="-480" width="150" height="40" as="geometry" />
        </mxCell>
        <mxCell id="mjaGHZqd63xZ3EgKJC4R-28" value="" style="endArrow=classic;html=1;" edge="1" parent="1">
          <mxGeometry width="50" height="50" relative="1" as="geometry">
            <mxPoint x="136.5" y="-530" as="sourcePoint" />
            <mxPoint x="514" y="-980" as="targetPoint" />
          </mxGeometry>
        </mxCell>
        <mxCell id="mjaGHZqd63xZ3EgKJC4R-29" value="-Xmx，指定最大堆内存" style="text;html=1;strokeColor=none;fillColor=none;align=left;verticalAlign=middle;whiteSpace=wrap;rounded=0;" vertex="1" parent="1">
          <mxGeometry x="514" y="-990" width="230" height="20" as="geometry" />
        </mxCell>
        <mxCell id="mjaGHZqd63xZ3EgKJC4R-30" value="-Xms，指定堆内存的初始大小" style="text;html=1;strokeColor=none;fillColor=none;align=left;verticalAlign=middle;whiteSpace=wrap;rounded=0;" vertex="1" parent="1">
          <mxGeometry x="514" y="-970" width="230" height="20" as="geometry" />
        </mxCell>
        <mxCell id="mjaGHZqd63xZ3EgKJC4R-31" value="一般-Xmx与-Xms设置为一致，防止堆内存的&lt;br&gt;&lt;div style=&quot;text-align: left&quot;&gt;&lt;span&gt;扩容导致性能抖动&lt;/span&gt;&lt;/div&gt;" style="text;html=1;strokeColor=none;fillColor=none;align=center;verticalAlign=middle;whiteSpace=wrap;rounded=0;" vertex="1" parent="1">
          <mxGeometry x="514" y="-950" width="240" height="20" as="geometry" />
        </mxCell>
        <mxCell id="mjaGHZqd63xZ3EgKJC4R-32" value="" style="endArrow=classic;html=1;" edge="1" parent="1">
          <mxGeometry width="50" height="50" relative="1" as="geometry">
            <mxPoint x="524" y="-540" as="sourcePoint" />
            <mxPoint x="544" y="-660" as="targetPoint" />
          </mxGeometry>
        </mxCell>
        <mxCell id="mjaGHZqd63xZ3EgKJC4R-33" value="-XX:MaxMetaspace=size，java8默认不限制meta空间大小，一般不设置" style="text;html=1;strokeColor=none;fillColor=none;align=center;verticalAlign=middle;whiteSpace=wrap;rounded=0;" vertex="1" parent="1">
          <mxGeometry x="549" y="-675" width="251" height="20" as="geometry" />
        </mxCell>
        <mxCell id="mjaGHZqd63xZ3EgKJC4R-35" value="-XX:MaxDirctMemorySize=size，指定系统可以使用的最大堆外内存（除栈、堆、非堆内存外的内存）" style="text;html=1;strokeColor=none;fillColor=none;align=center;verticalAlign=middle;whiteSpace=wrap;rounded=0;" vertex="1" parent="1">
          <mxGeometry x="514" y="-870" width="256" height="20" as="geometry" />
        </mxCell>
        <mxCell id="mjaGHZqd63xZ3EgKJC4R-36" value="" style="endArrow=classic;html=1;" edge="1" parent="1">
          <mxGeometry width="50" height="50" relative="1" as="geometry">
            <mxPoint x="120" y="-780" as="sourcePoint" />
            <mxPoint x="520" y="-770" as="targetPoint" />
          </mxGeometry>
        </mxCell>
        <mxCell id="mjaGHZqd63xZ3EgKJC4R-37" value="-Xss，设置每个线程可用的内存大小，即栈的大小" style="text;html=1;strokeColor=none;fillColor=none;align=center;verticalAlign=middle;whiteSpace=wrap;rounded=0;" vertex="1" parent="1">
          <mxGeometry x="524" y="-780" width="276" height="20" as="geometry" />
        </mxCell>
        <mxCell id="mjaGHZqd63xZ3EgKJC4R-38" value="-Xmn，等价于XX:NewSize，对内年轻代大小，老年代大小为-Xmx - -Xmn" style="text;html=1;strokeColor=none;fillColor=none;align=center;verticalAlign=middle;whiteSpace=wrap;rounded=0;" vertex="1" parent="1">
          <mxGeometry x="514" y="-740" width="256" height="20" as="geometry" />
        </mxCell>
        <mxCell id="mjaGHZqd63xZ3EgKJC4R-39" value="" style="endArrow=classic;html=1;exitX=0.5;exitY=0;exitDx=0;exitDy=0;" edge="1" parent="1" source="mjaGHZqd63xZ3EgKJC4R-6">
          <mxGeometry width="50" height="50" relative="1" as="geometry">
            <mxPoint x="530" y="-590" as="sourcePoint" />
            <mxPoint x="510" y="-730" as="targetPoint" />
          </mxGeometry>
        </mxCell>
      </root>
    </mxGraphModel>
  </diagram>
</mxfile>
